
<svg width="18" height="18" viewBox="0 0 18 18" fill="none" xmlns="http://www.w3.org/2000/svg">
    <path d="M16.2 3.6H1.8V1.8H16.2V3.6ZM16.2 12.6H1.8V7.2H16.2V12.6ZM16.2 0H1.8C0.801 0 0 0.801 0 1.8V12.6C0 13.0774 0.189642 13.5352 0.527208 13.8728C0.864773 14.2104 1.32261 14.4 1.8 14.4H16.2C16.6774 14.4 17.1352 14.2104 17.4728 13.8728C17.8104 13.5352 18 13.0774 18 12.6V1.8C18 0.801 17.19 0 16.2 0ZM4.5 16.2H6.3V18H4.5V16.2ZM8.1 16.2H9.9V18H8.1V16.2ZM11.7 16.2H13.5V18H11.7V16.2Z" fill="#C2CFE0"/>
</svg>
