
<svg width="18" height="20" viewBox="0 0 18 20" fill="none" xmlns="http://www.w3.org/2000/svg">
    <path d="M9 0L0 3.63636V9.09091C0 14.1364 3.84 18.8545 9 20C14.16 18.8545 18 14.1364 18 9.09091V3.63636L9 0ZM9 1.98182L16 4.81818V9.29091C16 10.8364 15.5 12.4091 14.65 13.7909C13 12.6727 10.26 12.2727 9 12.2727C7.74 12.2727 5 12.6727 3.35 13.7909C2.5 12.4091 2 10.8364 2 9.29091V4.81818L9 1.98182ZM9 4.54545C8.07174 4.54545 7.1815 4.88068 6.52513 5.47739C5.86875 6.07409 5.5 6.8834 5.5 7.72727C5.5 8.57114 5.86875 9.38045 6.52513 9.97716C7.1815 10.5739 8.07174 10.9091 9 10.9091C9.92826 10.9091 10.8185 10.5739 11.4749 9.97716C12.1313 9.38045 12.5 8.57114 12.5 7.72727C12.5 6.8834 12.1313 6.07409 11.4749 5.47739C10.8185 4.88068 9.92826 4.54545 9 4.54545ZM9 6.36364C9.39782 6.36364 9.77936 6.5073 10.0607 6.76304C10.342 7.01877 10.5 7.36561 10.5 7.72727C10.5 8.08893 10.342 8.43578 10.0607 8.69151C9.77936 8.94724 9.39782 9.09091 9 9.09091C8.60218 9.09091 8.22064 8.94724 7.93934 8.69151C7.65804 8.43578 7.5 8.08893 7.5 7.72727C7.5 7.36561 7.65804 7.01877 7.93934 6.76304C8.22064 6.5073 8.60218 6.36364 9 6.36364ZM9 14.0909C10.57 14.0909 12.64 14.6455 13.53 15.3091C12.29 16.7091 10.7 17.7727 9 18.1818C7.3 17.7727 5.71 16.7091 4.47 15.3091C5.37 14.6455 7.43 14.0909 9 14.0909Z" fill="#C2CFE0"/>
</svg>
